<svg id="visual" viewBox="0 0 900 600" width="900" height="600" xmlns="http://www.w3.org/2000/svg" xmlns:xlink="http://www.w3.org/1999/xlink" version="1.1"><rect width="900" height="600" fill="#001829"></rect><g><g transform="translate(215 21)"><path d="M0 -24.2L20.9 -12.1L20.9 12.1L0 24.2L-20.9 12.1L-20.9 -12.1Z" fill="none" stroke="#297EA6" stroke-width="2"></path></g><g transform="translate(581 285)"><path d="M0 -18L15.6 -9L15.6 9L0 18L-15.6 9L-15.6 -9Z" fill="none" stroke="#297EA6" stroke-width="2"></path></g><g transform="translate(536 474)"><path d="M0 -13L11.3 -6.5L11.3 6.5L0 13L-11.3 6.5L-11.3 -6.5Z" fill="none" stroke="#297EA6" stroke-width="2"></path></g><g transform="translate(380 515)"><path d="M0 -10L8.7 -5L8.7 5L0 10L-8.7 5L-8.7 -5Z" stroke="#297EA6" fill="none" stroke-width="2"></path></g><g transform="translate(448 414)"><path d="M0 -8L6.9 -4L6.9 4L0 8L-6.9 4L-6.9 -4Z" stroke="#297EA6" fill="none" stroke-width="2"></path></g><g transform="translate(288 237)"><path d="M0 -11L9.5 -5.5L9.5 5.5L0 11L-9.5 5.5L-9.5 -5.5Z" stroke="#297EA6" fill="none" stroke-width="2"></path></g><g transform="translate(516 530)"><path d="M0 -13L11.3 -6.5L11.3 6.5L0 13L-11.3 6.5L-11.3 -6.5Z" stroke="#297EA6" fill="none" stroke-width="2"></path></g><g transform="translate(303 555)"><path d="M0 -14L12.1 -7L12.1 7L0 14L-12.1 7L-12.1 -7Z" stroke="#297EA6" fill="none" stroke-width="2"></path></g><g transform="translate(653 596)"><path d="M0 -17L14.7 -8.5L14.7 8.5L0 17L-14.7 8.5L-14.7 -8.5Z" stroke="#297EA6" fill="none" stroke-width="2"></path></g><g transform="translate(536 178)"><path d="M0 -21L18.2 -10.5L18.2 10.5L0 21L-18.2 10.5L-18.2 -10.5Z" stroke="#297EA6" fill="none" stroke-width="2"></path></g><g transform="translate(638 440)"><path d="M0 -16L13.9 -8L13.9 8L0 16L-13.9 8L-13.9 -8Z" stroke="#297EA6" fill="none" stroke-width="2"></path></g><g transform="translate(319 323)"><path d="M0 -21L18.2 -10.5L18.2 10.5L0 21L-18.2 10.5L-18.2 -10.5Z" stroke="#297EA6" fill="none" stroke-width="2"></path></g><g transform="translate(328 385)"><path d="M0 -23L19.9 -11.5L19.9 11.5L0 23L-19.9 11.5L-19.9 -11.5Z" stroke="#297EA6" fill="none" stroke-width="2"></path></g><g transform="translate(35 345)"><path d="M0 -13L11.3 -6.5L11.3 6.5L0 13L-11.3 6.5L-11.3 -6.5Z" stroke="#297EA6" fill="none" stroke-width="2"></path></g><g transform="translate(24 48)"><path d="M0 -7L6.1 -3.5L6.1 3.5L0 7L-6.1 3.5L-6.1 -3.5Z" stroke="#297EA6" fill="none" stroke-width="2"></path></g><g transform="translate(402 104)"><path d="M0 -7L6.1 -3.5L6.1 3.5L0 7L-6.1 3.5L-6.1 -3.5Z" stroke="#297EA6" fill="none" stroke-width="2"></path></g><g transform="translate(331 466)"><path d="M0 -20L17.3 -10L17.3 10L0 20L-17.3 10L-17.3 -10Z" stroke="#297EA6" fill="none" stroke-width="2"></path></g><g transform="translate(647 85)"><path d="M0 -20L17.3 -10L17.3 10L0 20L-17.3 10L-17.3 -10Z" stroke="#297EA6" fill="none" stroke-width="2"></path></g><g transform="translate(190 254)"><path d="M0 -19L16.5 -9.5L16.5 9.5L0 19L-16.5 9.5L-16.5 -9.5Z" stroke="#297EA6" fill="none" stroke-width="2"></path></g><g transform="translate(122 406)"><path d="M0 -4L3.5 -2L3.5 2L0 4L-3.5 2L-3.5 -2Z" stroke="#297EA6" fill="none" stroke-width="2"></path></g><g transform="translate(792 34)"><path d="M0 -4L3.5 -2L3.5 2L0 4L-3.5 2L-3.5 -2Z" stroke="#297EA6" fill="none" stroke-width="2"></path></g><g transform="translate(888 512)"><path d="M0 -19L16.5 -9.5L16.5 9.5L0 19L-16.5 9.5L-16.5 -9.5Z" stroke="#297EA6" fill="none" stroke-width="2"></path></g><g transform="translate(140 270)"><path d="M0 -10L8.7 -5L8.7 5L0 10L-8.7 5L-8.7 -5Z" stroke="#297EA6" fill="none" stroke-width="2"></path></g><g transform="translate(148 3)"><path d="M0 -18L15.6 -9L15.6 9L0 18L-15.6 9L-15.6 -9Z" stroke="#297EA6" fill="none" stroke-width="2"></path></g><g transform="translate(864 269)"><path d="M0 -22L19.1 -11L19.1 11L0 22L-19.1 11L-19.1 -11Z" stroke="#297EA6" fill="none" stroke-width="2"></path></g><g transform="translate(758 458)"><path d="M0 -10L8.7 -5L8.7 5L0 10L-8.7 5L-8.7 -5Z" stroke="#297EA6" fill="none" stroke-width="2"></path></g><g transform="translate(99 197)"><path d="M0 -9L7.8 -4.5L7.8 4.5L0 9L-7.8 4.5L-7.8 -4.5Z" stroke="#297EA6" fill="none" stroke-width="2"></path></g><g transform="translate(657 143)"><path d="M0 -6L5.2 -3L5.2 3L0 6L-5.2 3L-5.2 -3Z" stroke="#297EA6" fill="none" stroke-width="2"></path></g><g transform="translate(651 515)"><path d="M0 -8L6.9 -4L6.9 4L0 8L-6.9 4L-6.9 -4Z" stroke="#297EA6" fill="none" stroke-width="2"></path></g><g transform="translate(480 314)"><path d="M0 -16L13.9 -8L13.9 8L0 16L-13.9 8L-13.9 -8Z" stroke="#297EA6" fill="none" stroke-width="2"></path></g><g transform="translate(456 209)"><path d="M0 -23L19.9 -11.5L19.9 11.5L0 23L-19.9 11.5L-19.9 -11.5Z" stroke="#297EA6" fill="none" stroke-width="2"></path></g><g transform="translate(552 51)"><path d="M0 -9L7.8 -4.5L7.8 4.5L0 9L-7.8 4.5L-7.8 -4.5Z" stroke="#297EA6" fill="none" stroke-width="2"></path></g><g transform="translate(34 585)"><path d="M0 -10L8.7 -5L8.7 5L0 10L-8.7 5L-8.7 -5Z" stroke="#297EA6" fill="none" stroke-width="2"></path></g><g transform="translate(207 190)"><path d="M0 -4L3.5 -2L3.5 2L0 4L-3.5 2L-3.5 -2Z" stroke="#297EA6" fill="none" stroke-width="2"></path></g><g transform="translate(87 286)"><path d="M0 -6L5.2 -3L5.2 3L0 6L-5.2 3L-5.2 -3Z" stroke="#297EA6" fill="none" stroke-width="2"></path></g><g transform="translate(429 281)"><path d="M0 -23L19.9 -11.5L19.9 11.5L0 23L-19.9 11.5L-19.9 -11.5Z" stroke="#297EA6" fill="none" stroke-width="2"></path></g><g transform="translate(122 98)"><path d="M0 -22L19.1 -11L19.1 11L0 22L-19.1 11L-19.1 -11Z" stroke="#297EA6" fill="none" stroke-width="2"></path></g><g transform="translate(687 188)"><path d="M0 -19L16.5 -9.5L16.5 9.5L0 19L-16.5 9.5L-16.5 -9.5Z" stroke="#297EA6" fill="none" stroke-width="2"></path></g><g transform="translate(578 230)"><path d="M0 -8L6.9 -4L6.9 4L0 8L-6.9 4L-6.9 -4Z" stroke="#297EA6" fill="none" stroke-width="2"></path></g><g transform="translate(713 526)"><path d="M0 -19L16.5 -9.5L16.5 9.5L0 19L-16.5 9.5L-16.5 -9.5Z" stroke="#297EA6" fill="none" stroke-width="2"></path></g><g transform="translate(15 434)"><path d="M0 -20L17.3 -10L17.3 10L0 20L-17.3 10L-17.3 -10Z" stroke="#297EA6" fill="none" stroke-width="2"></path></g><g transform="translate(706 437)"><path d="M0 -7L6.1 -3.5L6.1 3.5L0 7L-6.1 3.5L-6.1 -3.5Z" stroke="#297EA6" fill="none" stroke-width="2"></path></g><g transform="translate(281 411)"><path d="M0 -3L2.6 -1.5L2.6 1.5L0 3L-2.6 1.5L-2.6 -1.5Z" stroke="#297EA6" fill="none" stroke-width="2"></path></g><g transform="translate(650 20)"><path d="M0 -4L3.5 -2L3.5 2L0 4L-3.5 2L-3.5 -2Z" stroke="#297EA6" fill="none" stroke-width="2"></path></g><g transform="translate(734 147)"><path d="M0 -13L11.3 -6.5L11.3 6.5L0 13L-11.3 6.5L-11.3 -6.5Z" stroke="#297EA6" fill="none" stroke-width="2"></path></g><g transform="translate(802 370)"><path d="M0 -23L19.9 -11.5L19.9 11.5L0 23L-19.9 11.5L-19.9 -11.5Z" stroke="#297EA6" fill="none" stroke-width="2"></path></g><g transform="translate(651 257)"><path d="M0 -13L11.3 -6.5L11.3 6.5L0 13L-11.3 6.5L-11.3 -6.5Z" stroke="#297EA6" fill="none" stroke-width="2"></path></g><g transform="translate(815 251)"><path d="M0 -13L11.3 -6.5L11.3 6.5L0 13L-11.3 6.5L-11.3 -6.5Z" stroke="#297EA6" fill="none" stroke-width="2"></path></g><g transform="translate(294 105)"><path d="M0 -9L7.8 -4.5L7.8 4.5L0 9L-7.8 4.5L-7.8 -4.5Z" stroke="#297EA6" fill="none" stroke-width="2"></path></g><g transform="translate(854 219)"><path d="M0 -17L14.7 -8.5L14.7 8.5L0 17L-14.7 8.5L-14.7 -8.5Z" stroke="#297EA6" fill="none" stroke-width="2"></path></g><g transform="translate(193 320)"><path d="M0 -5L4.3 -2.5L4.3 2.5L0 5L-4.3 2.5L-4.3 -2.5Z" stroke="#297EA6" fill="none" stroke-width="2"></path></g><g transform="translate(87 550)"><path d="M0 -14L12.1 -7L12.1 7L0 14L-12.1 7L-12.1 -7Z" stroke="#297EA6" fill="none" stroke-width="2"></path></g><g transform="translate(574 351)"><path d="M0 -6L5.2 -3L5.2 3L0 6L-5.2 3L-5.2 -3Z" stroke="#297EA6" fill="none" stroke-width="2"></path></g><g transform="translate(250 66)"><path d="M0 -12L10.4 -6L10.4 6L0 12L-10.4 6L-10.4 -6Z" stroke="#297EA6" fill="none" stroke-width="2"></path></g><g transform="translate(237 376)"><path d="M0 -22L19.1 -11L19.1 11L0 22L-19.1 11L-19.1 -11Z" stroke="#297EA6" fill="none" stroke-width="2"></path></g><g transform="translate(181 571)"><path d="M0 -16L13.9 -8L13.9 8L0 16L-13.9 8L-13.9 -8Z" stroke="#297EA6" fill="none" stroke-width="2"></path></g><g transform="translate(729 223)"><path d="M0 -14L12.1 -7L12.1 7L0 14L-12.1 7L-12.1 -7Z" stroke="#297EA6" fill="none" stroke-width="2"></path></g><g transform="translate(852 66)"><path d="M0 -8L6.9 -4L6.9 4L0 8L-6.9 4L-6.9 -4Z" stroke="#297EA6" fill="none" stroke-width="2"></path></g><g transform="translate(398 330)"><path d="M0 -18L15.6 -9L15.6 9L0 18L-15.6 9L-15.6 -9Z" stroke="#297EA6" fill="none" stroke-width="2"></path></g><g transform="translate(374 175)"><path d="M0 -17L14.7 -8.5L14.7 8.5L0 17L-14.7 8.5L-14.7 -8.5Z" stroke="#297EA6" fill="none" stroke-width="2"></path></g><g transform="translate(191 77)"><path d="M0 -20L17.3 -10L17.3 10L0 20L-17.3 10L-17.3 -10Z" stroke="#297EA6" fill="none" stroke-width="2"></path></g><g transform="translate(601 9)"><path d="M0 -5L4.3 -2.5L4.3 2.5L0 5L-4.3 2.5L-4.3 -2.5Z" stroke="#297EA6" fill="none" stroke-width="2"></path></g><g transform="translate(34 106)"><path d="M0 -15L13 -7.5L13 7.5L0 15L-13 7.5L-13 -7.5Z" stroke="#297EA6" fill="none" stroke-width="2"></path></g><g transform="translate(880 566)"><path d="M0 -7L6.1 -3.5L6.1 3.5L0 7L-6.1 3.5L-6.1 -3.5Z" stroke="#297EA6" fill="none" stroke-width="2"></path></g><g transform="translate(460 10)"><path d="M0 -20L17.3 -10L17.3 10L0 20L-17.3 10L-17.3 -10Z" stroke="#297EA6" fill="none" stroke-width="2"></path></g><g transform="translate(896 179)"><path d="M0 -11L9.5 -5.5L9.5 5.5L0 11L-9.5 5.5L-9.5 -5.5Z" stroke="#297EA6" fill="none" stroke-width="2"></path></g><g transform="translate(318 63)"><path d="M0 -20L17.3 -10L17.3 10L0 20L-17.3 10L-17.3 -10Z" stroke="#297EA6" fill="none" stroke-width="2"></path></g><g transform="translate(59 229)"><path d="M0 -11L9.5 -5.5L9.5 5.5L0 11L-9.5 5.5L-9.5 -5.5Z" stroke="#297EA6" fill="none" stroke-width="2"></path></g><g transform="translate(125 332)"><path d="M0 -9L7.8 -4.5L7.8 4.5L0 9L-7.8 4.5L-7.8 -4.5Z" stroke="#297EA6" fill="none" stroke-width="2"></path></g><g transform="translate(894 336)"><path d="M0 -9L7.8 -4.5L7.8 4.5L0 9L-7.8 4.5L-7.8 -4.5Z" stroke="#297EA6" fill="none" stroke-width="2"></path></g><g transform="translate(864 451)"><path d="M0 -12L10.4 -6L10.4 6L0 12L-10.4 6L-10.4 -6Z" stroke="#297EA6" fill="none" stroke-width="2"></path></g><g transform="translate(149 148)"><path d="M0 -15L13 -7.5L13 7.5L0 15L-13 7.5L-13 -7.5Z" stroke="#297EA6" fill="none" stroke-width="2"></path></g><g transform="translate(579 102)"><path d="M0 -8L6.9 -4L6.9 4L0 8L-6.9 4L-6.9 -4Z" stroke="#297EA6" fill="none" stroke-width="2"></path></g><g transform="translate(252 512)"><path d="M0 -20L17.3 -10L17.3 10L0 20L-17.3 10L-17.3 -10Z" stroke="#297EA6" fill="none" stroke-width="2"></path></g><g transform="translate(433 144)"><path d="M0 -23L19.9 -11.5L19.9 11.5L0 23L-19.9 11.5L-19.9 -11.5Z" stroke="#297EA6" fill="none" stroke-width="2"></path></g><g transform="translate(240 269)"><path d="M0 -13L11.3 -6.5L11.3 6.5L0 13L-11.3 6.5L-11.3 -6.5Z" stroke="#297EA6" fill="none" stroke-width="2"></path></g><g transform="translate(836 407)"><path d="M0 -5L4.3 -2.5L4.3 2.5L0 5L-4.3 2.5L-4.3 -2.5Z" stroke="#297EA6" fill="none" stroke-width="2"></path></g><g transform="translate(404 236)"><path d="M0 -3L2.6 -1.5L2.6 1.5L0 3L-2.6 1.5L-2.6 -1.5Z" stroke="#297EA6" fill="none" stroke-width="2"></path></g><g transform="translate(113 475)"><path d="M0 -5L4.3 -2.5L4.3 2.5L0 5L-4.3 2.5L-4.3 -2.5Z" stroke="#297EA6" fill="none" stroke-width="2"></path></g><g transform="translate(253 454)"><path d="M0 -3L2.6 -1.5L2.6 1.5L0 3L-2.6 1.5L-2.6 -1.5Z" stroke="#297EA6" fill="none" stroke-width="2"></path></g><g transform="translate(809 170)"><path d="M0 -4L3.5 -2L3.5 2L0 4L-3.5 2L-3.5 -2Z" stroke="#297EA6" fill="none" stroke-width="2"></path></g><g transform="translate(325 205)"><path d="M0 -9L7.8 -4.5L7.8 4.5L0 9L-7.8 4.5L-7.8 -4.5Z" stroke="#297EA6" fill="none" stroke-width="2"></path></g><g transform="translate(373 7)"><path d="M0 -9L7.8 -4.5L7.8 4.5L0 9L-7.8 4.5L-7.8 -4.5Z" stroke="#297EA6" fill="none" stroke-width="2"></path></g><g transform="translate(593 596)"><path d="M0 -10L8.7 -5L8.7 5L0 10L-8.7 5L-8.7 -5Z" stroke="#297EA6" fill="none" stroke-width="2"></path></g><g transform="translate(568 552)"><path d="M0 -13L11.3 -6.5L11.3 6.5L0 13L-11.3 6.5L-11.3 -6.5Z" stroke="#297EA6" fill="none" stroke-width="2"></path></g><g transform="translate(280 2)"><path d="M0 -12L10.4 -6L10.4 6L0 12L-10.4 6L-10.4 -6Z" stroke="#297EA6" fill="none" stroke-width="2"></path></g><g transform="translate(706 81)"><path d="M0 -5L4.3 -2.5L4.3 2.5L0 5L-4.3 2.5L-4.3 -2.5Z" stroke="#297EA6" fill="none" stroke-width="2"></path></g><g transform="translate(421 553)"><path d="M0 -5L4.3 -2.5L4.3 2.5L0 5L-4.3 2.5L-4.3 -2.5Z" stroke="#297EA6" fill="none" stroke-width="2"></path></g><g transform="translate(835 509)"><path d="M0 -12L10.4 -6L10.4 6L0 12L-10.4 6L-10.4 -6Z" stroke="#297EA6" fill="none" stroke-width="2"></path></g><g transform="translate(760 592)"><path d="M0 -17L14.7 -8.5L14.7 8.5L0 17L-14.7 8.5L-14.7 -8.5Z" stroke="#297EA6" fill="none" stroke-width="2"></path></g><g transform="translate(606 149)"><path d="M0 -22L19.1 -11L19.1 11L0 22L-19.1 11L-19.1 -11Z" stroke="#297EA6" fill="none" stroke-width="2"></path></g><g transform="translate(13 206)"><path d="M0 -23L19.9 -11.5L19.9 11.5L0 23L-19.9 11.5L-19.9 -11.5Z" stroke="#297EA6" fill="none" stroke-width="2"></path></g><g transform="translate(284 159)"><path d="M0 -11L9.5 -5.5L9.5 5.5L0 11L-9.5 5.5L-9.5 -5.5Z" stroke="#297EA6" fill="none" stroke-width="2"></path></g><g transform="translate(44 488)"><path d="M0 -7L6.1 -3.5L6.1 3.5L0 7L-6.1 3.5L-6.1 -3.5Z" stroke="#297EA6" fill="none" stroke-width="2"></path></g><g transform="translate(535 383)"><path d="M0 -9L7.8 -4.5L7.8 4.5L0 9L-7.8 4.5L-7.8 -4.5Z" stroke="#297EA6" fill="none" stroke-width="2"></path></g><g transform="translate(496 583)"><path d="M0 -15L13 -7.5L13 7.5L0 15L-13 7.5L-13 -7.5Z" stroke="#297EA6" fill="none" stroke-width="2"></path></g><g transform="translate(195 502)"><path d="M0 -22L19.1 -11L19.1 11L0 22L-19.1 11L-19.1 -11Z" stroke="#297EA6" fill="none" stroke-width="2"></path></g><g transform="translate(761 82)"><path d="M0 -19L16.5 -9.5L16.5 9.5L0 19L-16.5 9.5L-16.5 -9.5Z" stroke="#297EA6" fill="none" stroke-width="2"></path></g><g transform="translate(488 156)"><path d="M0 -4L3.5 -2L3.5 2L0 4L-3.5 2L-3.5 -2Z" stroke="#297EA6" fill="none" stroke-width="2"></path></g><g transform="translate(168 446)"><path d="M0 -18L15.6 -9L15.6 9L0 18L-15.6 9L-15.6 -9Z" stroke="#297EA6" fill="none" stroke-width="2"></path></g><g transform="translate(661 349)"><path d="M0 -12L10.4 -6L10.4 6L0 12L-10.4 6L-10.4 -6Z" stroke="#297EA6" fill="none" stroke-width="2"></path></g><g transform="translate(182 380)"><path d="M0 -9L7.8 -4.5L7.8 4.5L0 9L-7.8 4.5L-7.8 -4.5Z" stroke="#297EA6" fill="none" stroke-width="2"></path></g><g transform="translate(353 252)"><path d="M0 -3L2.6 -1.5L2.6 1.5L0 3L-2.6 1.5L-2.6 -1.5Z" stroke="#297EA6" fill="none" stroke-width="2"></path></g><g transform="translate(339 134)"><path d="M0 -22L19.1 -11L19.1 11L0 22L-19.1 11L-19.1 -11Z" stroke="#297EA6" fill="none" stroke-width="2"></path></g><g transform="translate(811 457)"><path d="M0 -9L7.8 -4.5L7.8 4.5L0 9L-7.8 4.5L-7.8 -4.5Z" stroke="#297EA6" fill="none" stroke-width="2"></path></g><g transform="translate(94 11)"><path d="M0 -3L2.6 -1.5L2.6 1.5L0 3L-2.6 1.5L-2.6 -1.5Z" stroke="#297EA6" fill="none" stroke-width="2"></path></g><g transform="translate(439 504)"><path d="M0 -14L12.1 -7L12.1 7L0 14L-12.1 7L-12.1 -7Z" stroke="#297EA6" fill="none" stroke-width="2"></path></g><g transform="translate(753 331)"><path d="M0 -16L13.9 -8L13.9 8L0 16L-13.9 8L-13.9 -8Z" stroke="#297EA6" fill="none" stroke-width="2"></path></g><g transform="translate(506 424)"><path d="M0 -3L2.6 -1.5L2.6 1.5L0 3L-2.6 1.5L-2.6 -1.5Z" stroke="#297EA6" fill="none" stroke-width="2"></path></g><g transform="translate(251 329)"><path d="M0 -8L6.9 -4L6.9 4L0 8L-6.9 4L-6.9 -4Z" stroke="#297EA6" fill="none" stroke-width="2"></path></g><g transform="translate(754 397)"><path d="M0 -20L17.3 -10L17.3 10L0 20L-17.3 10L-17.3 -10Z" stroke="#297EA6" fill="none" stroke-width="2"></path></g><g transform="translate(841 115)"><path d="M0 -11L9.5 -5.5L9.5 5.5L0 11L-9.5 5.5L-9.5 -5.5Z" stroke="#297EA6" fill="none" stroke-width="2"></path></g><g transform="translate(471 76)"><path d="M0 -4L3.5 -2L3.5 2L0 4L-3.5 2L-3.5 -2Z" stroke="#297EA6" fill="none" stroke-width="2"></path></g><g transform="translate(145 221)"><path d="M0 -6L5.2 -3L5.2 3L0 6L-5.2 3L-5.2 -3Z" stroke="#297EA6" fill="none" stroke-width="2"></path></g><g transform="translate(826 561)"><path d="M0 -21L18.2 -10.5L18.2 10.5L0 21L-18.2 10.5L-18.2 -10.5Z" stroke="#297EA6" fill="none" stroke-width="2"></path></g><g transform="translate(12 284)"><path d="M0 -10L8.7 -5L8.7 5L0 10L-8.7 5L-8.7 -5Z" stroke="#297EA6" fill="none" stroke-width="2"></path></g><g transform="translate(491 244)"><path d="M0 -23L19.9 -11.5L19.9 11.5L0 23L-19.9 11.5L-19.9 -11.5Z" stroke="#297EA6" fill="none" stroke-width="2"></path></g><g transform="translate(583 452)"><path d="M0 -9L7.8 -4.5L7.8 4.5L0 9L-7.8 4.5L-7.8 -4.5Z" stroke="#297EA6" fill="none" stroke-width="2"></path></g><g transform="translate(720 29)"><path d="M0 -5L4.3 -2.5L4.3 2.5L0 5L-4.3 2.5L-4.3 -2.5Z" stroke="#297EA6" fill="none" stroke-width="2"></path></g><g transform="translate(209 134)"><path d="M0 -17L14.7 -8.5L14.7 8.5L0 17L-14.7 8.5L-14.7 -8.5Z" stroke="#297EA6" fill="none" stroke-width="2"></path></g><g transform="translate(748 281)"><path d="M0 -11L9.5 -5.5L9.5 5.5L0 11L-9.5 5.5L-9.5 -5.5Z" stroke="#297EA6" fill="none" stroke-width="2"></path></g><g transform="translate(893 8)"><path d="M0 -20L17.3 -10L17.3 10L0 20L-17.3 10L-17.3 -10Z" stroke="#297EA6" fill="none" stroke-width="2"></path></g><g transform="translate(55 167)"><path d="M0 -3L2.6 -1.5L2.6 1.5L0 3L-2.6 1.5L-2.6 -1.5Z" stroke="#297EA6" fill="none" stroke-width="2"></path></g><g transform="translate(472 368)"><path d="M0 -21L18.2 -10.5L18.2 10.5L0 21L-18.2 10.5L-18.2 -10.5Z" stroke="#297EA6" fill="none" stroke-width="2"></path></g><g transform="translate(486 473)"><path d="M0 -10L8.7 -5L8.7 5L0 10L-8.7 5L-8.7 -5Z" stroke="#297EA6" fill="none" stroke-width="2"></path></g><g transform="translate(375 590)"><path d="M0 -7L6.1 -3.5L6.1 3.5L0 7L-6.1 3.5L-6.1 -3.5Z" stroke="#297EA6" fill="none" stroke-width="2"></path></g><g transform="translate(373 408)"><path d="M0 -19L16.5 -9.5L16.5 9.5L0 19L-16.5 9.5L-16.5 -9.5Z" stroke="#297EA6" fill="none" stroke-width="2"></path></g><g transform="translate(707 313)"><path d="M0 -22L19.1 -11L19.1 11L0 22L-19.1 11L-19.1 -11Z" stroke="#297EA6" fill="none" stroke-width="2"></path></g><g transform="translate(2 145)"><path d="M0 -20L17.3 -10L17.3 10L0 20L-17.3 10L-17.3 -10Z" stroke="#297EA6" fill="none" stroke-width="2"></path></g><g transform="translate(532 284)"><path d="M0 -22L19.1 -11L19.1 11L0 22L-19.1 11L-19.1 -11Z" stroke="#297EA6" fill="none" stroke-width="2"></path></g><g transform="translate(708 368)"><path d="M0 -6L5.2 -3L5.2 3L0 6L-5.2 3L-5.2 -3Z" stroke="#297EA6" fill="none" stroke-width="2"></path></g><g transform="translate(248 582)"><path d="M0 -6L5.2 -3L5.2 3L0 6L-5.2 3L-5.2 -3Z" stroke="#297EA6" fill="none" stroke-width="2"></path></g><g transform="translate(377 63)"><path d="M0 -3L2.6 -1.5L2.6 1.5L0 3L-2.6 1.5L-2.6 -1.5Z" stroke="#297EA6" fill="none" stroke-width="2"></path></g><g transform="translate(785 525)"><path d="M0 -17L14.7 -8.5L14.7 8.5L0 17L-14.7 8.5L-14.7 -8.5Z" stroke="#297EA6" fill="none" stroke-width="2"></path></g><g transform="translate(537 129)"><path d="M0 -12L10.4 -6L10.4 6L0 12L-10.4 6L-10.4 -6Z" stroke="#297EA6" fill="none" stroke-width="2"></path></g><g transform="translate(146 511)"><path d="M0 -14L12.1 -7L12.1 7L0 14L-12.1 7L-12.1 -7Z" stroke="#297EA6" fill="none" stroke-width="2"></path></g><g transform="translate(895 119)"><path d="M0 -12L10.4 -6L10.4 6L0 12L-10.4 6L-10.4 -6Z" stroke="#297EA6" fill="none" stroke-width="2"></path></g><g transform="translate(636 188)"><path d="M0 -9L7.8 -4.5L7.8 4.5L0 9L-7.8 4.5L-7.8 -4.5Z" stroke="#297EA6" fill="none" stroke-width="2"></path></g><g transform="translate(526 8)"><path d="M0 -16L13.9 -8L13.9 8L0 16L-13.9 8L-13.9 -8Z" stroke="#297EA6" fill="none" stroke-width="2"></path></g><g transform="translate(212 421)"><path d="M0 -16L13.9 -8L13.9 8L0 16L-13.9 8L-13.9 -8Z" stroke="#297EA6" fill="none" stroke-width="2"></path></g><g transform="translate(132 571)"><path d="M0 -9L7.8 -4.5L7.8 4.5L0 9L-7.8 4.5L-7.8 -4.5Z" stroke="#297EA6" fill="none" stroke-width="2"></path></g><g transform="translate(68 71)"><path d="M0 -7L6.1 -3.5L6.1 3.5L0 7L-6.1 3.5L-6.1 -3.5Z" stroke="#297EA6" fill="none" stroke-width="2"></path></g><g transform="translate(883 396)"><path d="M0 -22L19.1 -11L19.1 11L0 22L-19.1 11L-19.1 -11Z" stroke="#297EA6" fill="none" stroke-width="2"></path></g><g transform="translate(600 404)"><path d="M0 -3L2.6 -1.5L2.6 1.5L0 3L-2.6 1.5L-2.6 -1.5Z" stroke="#297EA6" fill="none" stroke-width="2"></path></g><g transform="translate(840 10)"><path d="M0 -5L4.3 -2.5L4.3 2.5L0 5L-4.3 2.5L-4.3 -2.5Z" stroke="#297EA6" fill="none" stroke-width="2"></path></g><g transform="translate(828 311)"><path d="M0 -8L6.9 -4L6.9 4L0 8L-6.9 4L-6.9 -4Z" stroke="#297EA6" fill="none" stroke-width="2"></path></g><g transform="translate(57 402)"><path d="M0 -22L19.1 -11L19.1 11L0 22L-19.1 11L-19.1 -11Z" stroke="#297EA6" fill="none" stroke-width="2"></path></g><g transform="translate(2 547)"><path d="M0 -4L3.5 -2L3.5 2L0 4L-3.5 2L-3.5 -2Z" stroke="#297EA6" fill="none" stroke-width="2"></path></g><g transform="translate(672 401)"><path d="M0 -3L2.6 -1.5L2.6 1.5L0 3L-2.6 1.5L-2.6 -1.5Z" stroke="#297EA6" fill="none" stroke-width="2"></path></g><g transform="translate(601 515)"><path d="M0 -21L18.2 -10.5L18.2 10.5L0 21L-18.2 10.5L-18.2 -10.5Z" stroke="#297EA6" fill="none" stroke-width="2"></path></g><g transform="translate(415 32)"><path d="M0 -21L18.2 -10.5L18.2 10.5L0 21L-18.2 10.5L-18.2 -10.5Z" stroke="#297EA6" fill="none" stroke-width="2"></path></g><g transform="translate(395 453)"><path d="M0 -12L10.4 -6L10.4 6L0 12L-10.4 6L-10.4 -6Z" stroke="#297EA6" fill="none" stroke-width="2"></path></g><g transform="translate(793 119)"><path d="M0 -10L8.7 -5L8.7 5L0 10L-8.7 5L-8.7 -5Z" stroke="#297EA6" fill="none" stroke-width="2"></path></g><g transform="translate(623 313)"><path d="M0 -17L14.7 -8.5L14.7 8.5L0 17L-14.7 8.5L-14.7 -8.5Z" stroke="#297EA6" fill="none" stroke-width="2"></path></g><g transform="translate(699 575)"><path d="M0 -21L18.2 -10.5L18.2 10.5L0 21L-18.2 10.5L-18.2 -10.5Z" stroke="#297EA6" fill="none" stroke-width="2"></path></g><g transform="translate(448 595)"><path d="M0 -6L5.2 -3L5.2 3L0 6L-5.2 3L-5.2 -3Z" stroke="#297EA6" fill="none" stroke-width="2"></path></g><g transform="translate(413 378)"><path d="M0 -12L10.4 -6L10.4 6L0 12L-10.4 6L-10.4 -6Z" stroke="#297EA6" fill="none" stroke-width="2"></path></g><g transform="translate(5 384)"><path d="M0 -14L12.1 -7L12.1 7L0 14L-12.1 7L-12.1 -7Z" stroke="#297EA6" fill="none" stroke-width="2"></path></g><g transform="translate(84 361)"><path d="M0 -11L9.5 -5.5L9.5 5.5L0 11L-9.5 5.5L-9.5 -5.5Z" stroke="#297EA6" fill="none" stroke-width="2"></path></g><g transform="translate(778 219)"><path d="M0 -18L15.6 -9L15.6 9L0 18L-15.6 9L-15.6 -9Z" stroke="#297EA6" fill="none" stroke-width="2"></path></g></g></svg>